<svg xmlns="http://www.w3.org/2000/svg" width="1000" height="954"><path d="M460.3 162.833l6.536-.006c7.66-.009 15.32-.013 22.98-.012 7.044 0 14.089-.01 21.133-.026a8100.73 8100.73 0 0118.372-.018c3.624 0 7.247-.002 10.87-.013 56.166-.157 114.09 3.312 156.327 44.795a259.33 259.33 0 004.275 4.052c24.58 23.446 40.939 55.86 57 85.336 8.726 15.998 17.876 31.658 27.432 47.173a1138.234 1138.234 0 019.55 15.825c.922 1.551 1.847 3.1 2.773 4.65 27.354 45.797 47.585 93.821 34.857 147.863-1.004 3.893-2.173 7.722-3.405 11.548l-.8 2.526c-10.365 32.114-28.774 60.495-46.41 88.992-7.988 12.963-15.37 26.246-22.696 39.591C725.072 717.08 725.072 717.08 701 742l-2.828 3.02c-34.575 36.357-83.95 44.611-131.994 46.098-8.689.173-17.378.19-26.069.184-2.968-.002-5.935.003-8.903.008-7.034.011-14.067.012-21.1.006-6.346-.006-12.692.001-19.038.02-141.823.41-141.823.41-191.443-48.336-24.527-24.551-41.061-56.062-57.594-86.223-9.16-16.708-18.637-33.142-28.728-49.31-31.328-50.267-59.33-102.649-46.264-163.557 1.109-4.706 2.48-9.309 3.961-13.91l.8-2.526c8.377-25.957 22.063-49.298 36.2-72.474a18537.015 18537.015 0 005.472-8.99 41428.065 41428.065 0 004.368-7.175c9.517-15.633 18.467-31.55 27.285-47.585 5.787-10.521 11.616-21 17.875-31.25l1.42-2.333c6.337-10.363 12.942-20.218 20.58-29.667l2.059-2.676C313.82 191.176 350.206 171.675 393 166c6.985-.84 13.984-1.486 21-2l3.429-.255c14.278-.965 28.567-.91 42.87-.912zM369 187l-3.8 1.086c-20.295 6.28-36.987 17.226-52.2 31.914l-2.516 2.324c-24.455 23.233-40.386 55.655-56.172 85.051-8.57 15.957-17.92 31.406-27.437 46.812C208.935 383.246 191.522 412.65 183 446l-.969 3.559c-12.98 55.826 18.001 107.123 46.186 152.561 10.427 16.845 20.167 34.08 29.694 51.447C269.777 675.191 281.87 696.454 297 716l2.043 2.672C313.585 737.116 330.523 751.459 352 761l3.16 1.426c29.894 12.459 63.027 12.046 94.824 11.977 4.72-.008 9.44 0 14.16.004 7.917.006 15.834-.001 23.75-.016 9.075-.016 18.15-.01 27.224.006 7.876.013 15.752.015 23.628.007 4.667-.004 9.334-.005 14 .005C599.7 774.497 646.911 771.51 683 738l1.714-1.582C694.31 727.465 702.375 717.664 710 707l1.294-1.797c12.41-17.411 22.315-36.61 32.578-55.334 10.027-18.275 20.631-36.21 31.503-53.994 20.23-32.733 20.23-32.733 35.625-67.875l.772-2.184c8.95-25.632 11.923-53.2 5.228-79.816l-.504-2.028c-8.02-31.534-24.667-59.616-41.67-87.023-3.678-5.942-7.25-11.946-10.826-17.949l-1.075-1.789c-5.741-9.552-11.186-19.256-16.55-29.024C726.542 271.923 726.542 271.923 703 238l-2.035-2.66c-25.552-32.43-58.504-48.865-99.276-54.021-10.537-1.249-21-1.473-31.595-1.48l-5.017-.015c-4.514-.013-9.027-.02-13.54-.024-2.835-.003-5.67-.007-8.504-.012-8.91-.013-17.822-.023-26.732-.027-10.207-.004-20.413-.022-30.619-.05-7.939-.023-15.878-.033-23.818-.034-4.717-.001-9.435-.007-14.152-.025-26.502-.096-53.024-.052-78.712 7.348z" fill="#71A1ED"/><path d="M428.942 193.839l5.1-.015c4.595-.013 9.191-.02 13.787-.024 2.882-.003 5.765-.007 8.647-.012 9.05-.013 18.1-.023 27.15-.027 10.388-.004 20.774-.022 31.16-.05 8.068-.023 16.134-.033 24.201-.034 4.8-.001 9.599-.007 14.398-.025 39-.138 39-.138 56.615 3.348l2.38.467C648.354 204.672 678.263 225.73 699 256l1.465 2.133c11.484 16.885 21.24 34.717 30.91 52.68 9.145 16.98 18.664 33.744 29.06 49.992C779.492 390.635 797.407 420.758 804 456l.538 2.866C807.09 476.17 805.734 495.227 801 512l-.601 2.195c-8.05 28.588-24.04 54.04-39.723 78.942-10.179 16.187-19.693 32.702-28.73 49.55-9.572 17.828-19.22 35.784-30.946 52.313l-2.098 2.96c-6.866 9.422-14.625 17.841-22.902 26.04-.746.755-1.493 1.51-2.262 2.29-26.394 25.416-63.249 33.138-98.722 34.265l-1.994.063c-22.477.686-44.974.532-67.459.512-6.516-.005-13.032-.002-19.548.004-5.117.004-10.234.002-15.351 0-2.4 0-4.8 0-7.199.002-12.807.01-25.597-.134-38.398-.566l-3.425-.111C386.65 759.153 355.332 750.28 328 728l-1.59-1.283c-2.821-2.302-5.382-4.617-7.722-7.405-1.848-2.181-3.695-4.32-5.676-6.382-20.246-21.245-33.791-49.85-47.608-75.406-8.79-16.249-18.195-32.074-28.029-47.712C231.001 579.676 224.849 569.448 219 559l-1.21-2.14c-19.072-33.95-30.015-73.882-19.466-112.487L199 442l.7-2.506c8.733-30.43 26.008-56.964 42.725-83.514 10.055-16.042 19.326-32.512 28.2-49.23 12.642-23.805 25.96-47.852 44.375-67.75l1.678-1.827c29.939-32.232 69.227-43.307 112.264-43.334zm-41.817 15.411c-.956.215-1.913.43-2.898.653-8.153 1.92-15.654 4.505-23.227 8.097l-3.344 1.586c-39.631 20.099-61.201 62.728-81.031 100.289-6.975 13.182-14.598 25.898-22.437 38.581C211.496 426.625 211.496 426.625 209 505c1.339 5.45 3.07 10.733 5 16l.717 1.972C222.761 544.64 234.795 564.478 247 584c11.183 17.909 21.819 35.988 31.75 54.625 22.572 42.251 48.533 88.379 97.324 103.32 25.378 7 50.678 7.373 76.81 7.357 3.508-.002 7.016.003 10.524.008 8.295.011 16.59.012 24.886.006 8.48-.006 16.96.006 25.44.027 7.35.018 14.7.024 22.05.02 4.359-.001 8.718.001 13.077.015 46.776.139 89.316-3.8 124.202-38.128 21.694-21.838 36.178-50.374 50.437-77.313 8.997-16.98 18.991-33.305 29.125-49.625 2.13-3.434 4.254-6.872 6.375-10.312l1.632-2.641C783.846 533.606 800.941 493.846 791 449c-1.339-5.45-3.07-10.733-5-16l-.717-1.972c-9.477-25.527-24.373-48.628-38.767-71.594-10.155-16.218-19.46-32.86-28.513-49.716-21.534-40.077-46.37-81.708-91.8-97.062A158.134 158.134 0 00616 210l-3.457-.828c-21.826-4.824-44.066-4.475-66.29-4.44-4.362.004-8.724 0-13.086-.003-7.32-.004-14.638 0-21.957.01-8.403.011-16.806.008-25.209-.003-7.278-.01-14.556-.01-21.834-.006-4.319.004-8.638.004-12.957-.003-32.25-.178-32.25-.178-64.085 4.523z" fill="#71A1ED"/><path d="M452.336 323.174c3.112.965 5.52 2.33 8.293 4.045l3.342 2.049 3.591 2.232c1.253.771 2.507 1.541 3.76 2.31 2.605 1.6 5.207 3.202 7.807 4.807 5.366 3.308 10.757 6.574 16.149 9.84 2.306 1.397 4.61 2.797 6.915 4.197 4.829 2.933 9.66 5.863 14.492 8.79l7.56 4.58c1.187.72 2.374 1.438 3.562 2.156 2.712 1.64 5.42 3.286 8.123 4.942a584.786 584.786 0 006.214 3.748l2.977 1.81 2.635 1.577c2.538 1.97 3.769 3.913 5.244 6.743-1.012 1.895-1.012 1.895-3 4a56.282 56.282 0 01-7.813 1.688l-2.269.364c-6.945 1.066-13.9 1.625-20.918 1.948 11.383 15.027 11.383 15.027 23.258 29.66 2.499 3.356 3.083 6.196 2.742 10.34-1.7 3.53-3.023 5.409-6.375 7.438-3.276.701-5.38.4-8.625-.438-2.203-1.828-2.203-1.828-4.25-4.25l-2.324-2.734a547.988 547.988 0 01-9.985-12.809c-3.389-4.475-6.913-8.841-10.441-13.207-3.198 7.317-5.574 14.83-7.805 22.486l-.73 2.416-.637 2.172c-.953 2.216-1.944 3.428-3.828 4.926-2.5 0-2.5 0-5-1-2.704-3.826-4.164-7.906-5.688-12.312l-.681-1.956A966.966 966.966 0 01477 421c-4.533 4.427-8.888 8.931-13.02 13.734-2.446 2.8-4.96 5.533-7.48 8.266-3.19 3.462-6.352 6.943-9.438 10.5l-1.648 1.879a355.433 355.433 0 00-3.477 4.059c-2.665 2.149-4.531 2.492-7.937 2.562-3.53-1.604-4.828-2.742-7-6-.115-5.877 1.94-8.637 5.773-12.7L435 441c1.358-1.476 2.716-2.952 4.069-4.433 1.432-1.569 2.871-3.132 4.31-4.696 2.05-2.246 4.07-4.508 6.058-6.808 3.663-4.232 7.479-8.321 11.301-12.408a193.973 193.973 0 002.912-3.2c1.35-1.455 1.35-1.455 3.838-3.6 2.92-5.514.223-12.41-1.449-18.159a470.63 470.63 0 00-3.61-10.528c-.446-1.289-.892-2.577-1.336-3.867-1.632-4.728-3.285-9.449-4.938-14.17a2491.885 2491.885 0 01-4.19-12.055 849.426 849.426 0 00-1.967-5.595c-3.86-11.19-3.86-11.19-2.998-16.481 3-2 3-2 5.336-1.826zm-19.711 126.514c-1.829 2.13-1.829 2.13-1.625 4.437 1.27 2.38 2.526 2.917 5 3.875 2.12-1.087 2.12-1.087 4-3 .334-3.126.334-3.126 0-6-3.35-1.117-4.417-1.414-7.375.688z" fill="#6F7DFE"/><path d="M485.625 378.938l2.477.027L490 379c-1.694 3.768-4.004 6.28-6.855 9.219-1.348 1.712-1.348 1.712-1.024 3.797 1.042 2.353 2.182 3.558 4.129 5.234l1.766 1.578c2.586 1.528 4.026 1.668 6.984 1.172 2.001-1.687 2.001-1.687 3.625-3.938 3.094-3.968 3.094-3.968 6.375-5.062.777 6.889.061 11.486-4.168 17.082-2.891 3.027-5.756 4.892-9.832 5.918a75.733 75.733 0 01-4.563-.313c-2.772-.098-3.94-.131-6.035 1.739a135.775 135.775 0 00-3.191 4.539c-2.924 4.014-6.284 7.511-9.711 11.098A457.866 457.866 0 00453 447a660.906 660.906 0 01-5.625 6.313l-1.367 1.548c-2.74 3.027-5.325 5.35-9.008 7.139-3.91 0-5.481-.548-8.438-3.125C427 456 427 456 426.813 452.687c1.641-5.094 4.511-7.888 8.188-11.687 1.358-1.476 2.716-2.952 4.069-4.433 1.432-1.569 2.871-3.132 4.31-4.696 2.05-2.246 4.07-4.508 6.058-6.808 3.663-4.232 7.479-8.321 11.301-12.408 6.054-5.814 6.054-5.814 8.324-13.405l-.093-2.07c.07-4.881 1.423-9.4 4.719-13.047 3.99-3.475 6.568-5.272 11.937-5.195zm-53 70.75c-1.829 2.13-1.829 2.13-1.625 4.437 1.27 2.38 2.526 2.917 5 3.875 2.12-1.087 2.12-1.087 4-3 .334-3.126.334-3.126 0-6-3.35-1.117-4.417-1.414-7.375.688z" fill="#ED71BD"/><path d="M375.177 508.778c3.342.263 4.416.939 6.823 3.222.595 2.142.595 2.142.724 4.586l.167 2.696L383 522l.133 2.414c.123 2.402.212 4.803.289 7.207l.084 2.626c.056 1.81.11 3.622.161 5.432.056 1.852.118 3.703.187 5.554.1 2.692.18 5.383.255 8.076l.104 2.509c.127 5.718.127 5.718-1.47 7.899-2.136 1.573-3.257 1.663-5.891 1.671l-2.519.029-2.708-.019-2.79.01c-1.947.001-3.894-.004-5.84-.017-2.984-.016-5.965 0-8.948.02-1.89-.003-3.781-.007-5.672-.013l-2.708.019-2.519-.029-2.213-.007c-2.503-.493-3.396-1.378-4.935-3.381-1.226-9.094.194-18.9.875-28l.237-3.254c1.082-13.235 1.082-13.235 4.056-17.37 2.66-1.997 4.966-2.013 8.258-2.325l3.853-.381 4.034-.357 3.998-.393c4.62-.441 9.236-.818 13.866-1.142zM356.563 519a2445.51 2445.51 0 00-9.563 1c-1.787 17.965-1.787 17.965-2 36 10.034.878 19.936 1.118 30 1 .124-13.042-.175-25.983-1-39-5.877-.129-11.596.378-17.437 1zM402 520l3.746.605c1.335.234 2.67.47 4.004.707l3.797.676c3.805 1.115 5.774 2.092 8.453 5.012.926 3.207.926 3.207 1.313 6.813l.425 3.582c.694 9.552.694 9.552-.68 12.902-3.258 2.696-6.91 3.165-10.995 3.953l-2.46.523c-3.671.76-6.822 1.227-10.603 1.227l-1-8 16-4v-13l-8.008-.586c-3.186-.44-5.959-1.364-8.992-2.414l.035 2.305c.074 8.713-.385 17.322-1.035 26.008l-.29 4.013c-.232 3.225-.469 6.45-.71 9.674h-8c-.864-2.941-1.075-5.39-.902-8.446l.144-2.639.176-2.825.177-2.92c.127-2.036.258-4.071.392-6.106.2-3.117.373-6.236.546-9.355.127-1.977.255-3.955.385-5.932l.146-2.831c.464-6.4.464-6.4 2.765-9.065 3.743-1.52 7.32-.575 11.171.119zM659 521c.098 6.152.098 6.152 0 8-1.584 1.584-3.277 1.22-5.473 1.316l-2.724.127-2.866.12-2.876.13c-2.354.107-4.707.209-7.061.307l-1 8 2.676.148c20.766 1.294 20.766 1.294 24.636 5.164 1.384 5.409-2.674 10.33-5.312 14.938l-1.078 1.93c-2.68 4.699-2.68 4.699-4.922 5.82-8.625-.051-16.74-1.633-25-4l1-8c6.797.55 13.331 1.57 20 3l5-9-3.125.125c-4.072-.022-8.078-.36-12.125-.813-1.771-.19-1.771-.19-3.578-.386C632 547 632 547 629.578 544.89c-2.057-3.768-1.916-6.197-1.578-10.453l.25-3.942c.832-3.877 1.583-5.183 4.75-7.496 7.715-2.96 17.83-2.138 26-2zM471 508c12.864-.167 25.655.36 38.5 1l5.996.29c4.835.232 9.67.47 14.504.71.919 3.676.959 5.164 0 9l-24-1c-.612 3.675-1.131 6.89-1.297 10.537l-.121 2.546-.117 2.69-.13 2.8c-.136 2.934-.267 5.868-.397 8.802l-.276 5.988c-.224 4.879-.444 9.758-.662 14.637h-9l2-49h-24c-1-1-1-1-1.098-2.848L471 508zM558.448 524.846l2.384-.112 2.136-.133c3.094.608 4.173 1.891 6.032 4.399.61 3.145.61 3.145.75 6.813l.079 1.971c.05 1.372.09 2.744.12 4.115.05 2.096.145 4.187.242 6.28.043 1.337.084 2.672.121 4.009l.114 3.667C570 559 570 559 568.132 561.4c-2.675 2.009-4.002 2.05-7.32 1.914l-3.167-.122L554 563c-1.475-.035-2.95-.068-4.426-.098-1.525-.048-3.05-.1-4.574-.152l-2.212-.042c-3.293-.155-5.485-.51-8.268-2.321-2.075-3.259-1.95-5.481-1.833-9.324l.056-1.988c.044-1.357.098-2.713.163-4.07.09-1.912.142-3.826.192-5.74.372-8.45.372-8.45 2.406-11.581 3.635-2.452 6.884-2.356 11.183-2.434l2.319-.09a220.25 220.25 0 014.644-.115c1.6-.03 3.2-.099 4.798-.2zM543 534c-1.238 3.713-1.356 7.313-1.563 11.188l-.13 2.271c-.106 1.847-.207 3.694-.307 5.541 4.053 1.108 8.072 1.337 12.25 1.563L561 555v-21h-18zM597.448 524.846l2.384-.112 2.136-.133c3.094.608 4.173 1.891 6.032 4.399.61 3.145.61 3.145.75 6.813l.079 1.971c.05 1.372.09 2.744.12 4.115.05 2.096.145 4.187.242 6.28.043 1.337.084 2.672.121 4.009l.114 3.667C609 559 609 559 607.132 561.4c-2.675 2.009-4.002 2.05-7.32 1.914l-3.167-.122L593 563c-1.475-.035-2.95-.068-4.426-.098-1.525-.048-3.05-.1-4.574-.152l-2.212-.042c-3.315-.156-5.483-.505-8.268-2.356-2.005-3.103-1.954-5.05-1.833-8.727l.122-3.734L572 544l.098-3.89c.379-9.292.379-9.292 2.406-12.462 3.64-2.403 6.903-2.32 11.183-2.398l2.319-.09a220.25 220.25 0 014.644-.115c1.6-.03 3.2-.099 4.798-.2zM582 534c-.989 3.954-1.33 7.706-1.563 11.75l-.13 2.113c-.106 1.712-.207 3.425-.307 5.137 4.053 1.108 8.072 1.337 12.25 1.563L600 555v-21h-18z" fill="#656598"/><path d="M443 521h9l-1 7 18-1v9l-19 1 .063 4.438c.007 4.93-.432 9.674-1.063 14.562l3.563.375c3.978.49 7.615 1.43 11.437 2.625-.875 5.75-.875 5.75-2 8a94.966 94.966 0 01-13.813-2.313l-2.769-.675c-2.937-1.23-3.787-2.303-5.418-5.012-.249-2.382-.249-2.382-.074-4.984l.166-2.832.22-2.934.186-2.98c.153-2.425.32-4.847.502-7.27l-3.027.254-3.91.308-3.903.317L427 539c-1-1-1-1-1.098-2.848L426 530c5.707-.993 11.214-1.105 17-1v-8z" fill="#656597"/><path d="M599 326.648c5.631 2.942 9.67 7.635 12.438 13.29.992 5.405.41 9.428-2.125 14.312-5.196 6.179-9.918 7.277-17.704 7.965L589 363c-1.432 2.469-1.432 2.469-2 5h-2v3l-5-1-1 2c-2.962-.613-4.38-1.254-7-3l1-5h-2v-4h2v-3h2c1.238-2.967 1.238-2.967.563-6.063-1.674-11.715-1.674-11.715 1.125-17.312 6.066-6.887 13.224-9.923 22.312-6.977zM582 334c-3.36 4.551-3.275 8.284-2.5 13.668 1.015 4.733 2.783 6.722 6.438 9.832 4.535 2.38 8.608 1.11 13.304-.332 4.282-1.814 5.622-2.972 7.758-7.168.902-5.09.604-8.814-1.75-13.438-4.002-4.557-6.922-6.371-13.063-6.875-4.396.073-6.853 1.366-10.187 4.313z" fill="#070F15"/><path d="M617 517l9 1c-1.456 11.95-2.941 23.893-4.625 35.813l-.372 2.672-.355 2.472c-.1.711-.202 1.423-.307 2.156C620 563 620 563 619 566h-8c.58-10.904 1.962-21.584 3.563-32.375l.708-4.867c.571-3.92 1.148-7.84 1.729-11.758z" fill="#656598"/><path d="M503 391h2v10h-2c-.194-1.478-.38-2.958-.563-4.438l-.316-2.496L502 392l1-1z" fill="#E173C4"/></svg>